<?xml version="1.0" encoding="UTF-8" standalone="no"?>
<!-- Created with Inkscape (http://www.inkscape.org/) -->

<svg
   width="1000"
   height="1000"
   viewBox="0 0 200 200"
   version="1.1"
   id="svg1"
   inkscape:version="1.3.2 (091e20e, 2023-11-25, custom)"
   inkscape:export-filename="sonoras.png"
   inkscape:export-xdpi="96"
   inkscape:export-ydpi="96"
   sodipodi:docname="drawing-1.svg"
   xmlns:inkscape="http://www.inkscape.org/namespaces/inkscape"
   xmlns:sodipodi="http://sodipodi.sourceforge.net/DTD/sodipodi-0.dtd"
   xmlns:xlink="http://www.w3.org/1999/xlink"
   xmlns="http://www.w3.org/2000/svg"
   xmlns:svg="http://www.w3.org/2000/svg">
  <sodipodi:namedview
     id="namedview1"
     pagecolor="#ffffff"
     bordercolor="#000000"
     borderopacity="0.25"
     inkscape:showpageshadow="2"
     inkscape:pageopacity="0.0"
     inkscape:pagecheckerboard="0"
     inkscape:deskcolor="#d1d1d1"
     inkscape:document-units="px"
     inkscape:zoom="1.122"
     inkscape:cx="499.55437"
     inkscape:cy="524.06417"
     inkscape:window-width="2560"
     inkscape:window-height="1373"
     inkscape:window-x="-9"
     inkscape:window-y="-9"
     inkscape:window-maximized="1"
     inkscape:current-layer="layer1" />
  <defs
     id="defs1">
    <linearGradient
       id="linearGradient6"
       inkscape:collect="always">
      <stop
         style="stop-color:#ffffff;stop-opacity:1;"
         offset="0"
         id="stop7" />
      <stop
         style="stop-color:#800000;stop-opacity:1;"
         offset="1"
         id="stop6" />
    </linearGradient>
    <linearGradient
       id="linearGradient2"
       inkscape:collect="always">
      <stop
         style="stop-color:#ffb600;stop-opacity:1;"
         offset="0"
         id="stop3" />
      <stop
         style="stop-color:#ffffff;stop-opacity:1;"
         offset="1"
         id="stop4" />
    </linearGradient>
    <radialGradient
       inkscape:collect="always"
       xlink:href="#linearGradient2"
       id="radialGradient4"
       cx="3.3868091"
       cy="34.581108"
       fx="3.3868091"
       fy="34.581108"
       r="42.676095"
       gradientUnits="userSpaceOnUse"
       gradientTransform="matrix(0.9999741,0.00719716,-0.0062917,0.87416592,0.21766181,4.3271064)" />
    <filter
       inkscape:collect="always"
       style="color-interpolation-filters:sRGB"
       id="filter4"
       x="-0.0025723046"
       y="-0.0050783941"
       width="1.0051446"
       height="1.0101568">
      <feGaussianBlur
         inkscape:collect="always"
         stdDeviation="0.090302691"
         id="feGaussianBlur4" />
    </filter>
    <radialGradient
       inkscape:collect="always"
       xlink:href="#linearGradient6"
       id="radialGradient7"
       cx="103.28185"
       cy="85.124184"
       fx="103.28185"
       fy="85.124184"
       r="59.501125"
       gradientTransform="matrix(0,1,-0.50000003,0,145.84393,11.592893)"
       gradientUnits="userSpaceOnUse" />
  </defs>
  <g
     inkscape:label="Layer 1"
     inkscape:groupmode="layer"
     id="layer1">
    <path
       style="font-variation-settings:normal;opacity:1;vector-effect:none;fill:url(#radialGradient7);fill-opacity:1;fill-rule:evenodd;stroke:none;stroke-width:6.4;stroke-linecap:round;stroke-linejoin:round;stroke-miterlimit:1;stroke-dasharray:none;stroke-dashoffset:0;stroke-opacity:1;-inkscape-stroke:none;paint-order:stroke markers fill"
       id="path5"
       sodipodi:type="arc"
       sodipodi:cx="103.28184"
       sodipodi:cy="114.87473"
       sodipodi:rx="59.501125"
       sodipodi:ry="59.501129"
       sodipodi:start="0"
       sodipodi:end="3.1415927"
       sodipodi:open="true"
       sodipodi:arc-type="arc"
       d="m 162.78296,114.87473 a 59.501125,59.501129 0 0 1 -29.75056,51.52949 59.501125,59.501129 0 0 1 -59.501127,0 59.501125,59.501129 0 0 1 -29.750561,-51.52949" />
    <path
       id="path4"
       style="fill:url(#radialGradient4);fill-rule:evenodd;stroke:none;stroke-width:4.37733;stroke-linecap:round;stroke-linejoin:round;stroke-miterlimit:1;paint-order:stroke markers fill;filter:url(#filter4)"
       inkscape:transform-center-y="-15.733604"
       d="M 9.0052948,-8.0949573 1.9505235,6.1985598 A 29.413113,29.413113 0 0 0 1.7222226,6.214839 L -7.7538325,-6.9966026 -8.7906008,8.7385051 a 29.413113,29.413113 0 0 0 -0.3544156,0.186328 L -22.816982,0.43180547 -17.805543,15.210952 a 29.413113,29.413113 0 0 0 -0.426201,0.426005 l -15.659007,-2.577995 10.057987,11.476825 a 29.413113,29.413113 0 0 0 -0.33343,0.89359 l -15.123167,3.533368 11.383466,5.618477 H 34.679924 L 32.731521,33.619573 A 29.413113,29.413113 0 0 0 32.617763,32.296448 L 44.964447,23.440375 29.725952,22.436361 A 29.413113,29.413113 0 0 0 29.311716,21.616714 L 37.536235,8.377421 22.759638,13.387684 A 29.413113,29.413113 0 0 0 22.323042,13.010909 L 24.909078,-2.6963479 13.018997,7.7237038 A 29.413113,29.413113 0 0 0 12.674584,7.6099456 Z"
       transform="matrix(1.4620835,0,0,1.4620835,99.133113,63.997229)" />
  </g>
</svg>
